# xmcd
# 
# Track frame offsets:
#     150
#     20132
#     42900
#     68550
#     95500
#     111122
#     136342
#     149745
# 
# Disc length: 2556
# 
# Revision: 11
# Processed by: cddbd v1.5.2PL0 Copyright (c) Steve Scherf et al.
# Submitted via: BonkEnc v1.0rc1
# 
DISCID=7309fa08
DTITLE=Leonard Cohen - Death of a Ladies' Man
DYEAR=1977
DGENRE=Folk/Rock
TTITLE0=True Love Leaves No Traces
TTITLE1=Iodine
TTITLE2=Paper Thin Hotel
TTITLE3=Memories
TTITLE4=I Left a Woman Waiting
TTITLE5=Don't Go Home With Your Hard-On
TTITLE6=Fingerprints
TTITLE7=Death of a Ladies' Man
EXTD=Produced by Phil Spector.\n\nLeonard Cohen, describing the process of making\nthis recording:  "It was a disaster".\n\nSpector locked him out of the final process, worked very\nhard at drowning out Leonard's vocals, added his own\nwriting credit.\n\n
EXTD=YEAR: 1977 ID3G: 0
EXTT0=
EXTT1=
EXTT2=
EXTT3=
EXTT4=
EXTT5=
EXTT6=
EXTT7=
PLAYORDER=
